<?xml version="1.0" encoding="utf-8"?>
<!-- Generator: Adobe Illustrator 23.0.4, SVG Export Plug-In . SVG Version: 6.00 Build 0)  -->
<svg version="1.1" id="Layer_1" xmlns="http://www.w3.org/2000/svg" xmlns:xlink="http://www.w3.org/1999/xlink" x="0px" y="0px"
	 viewBox="0 0 595.3 841.9" style="enable-background:new 0 0 595.3 841.9;" xml:space="preserve">
<style type="text/css">
	.st0{fill:#00FFF8;stroke:#231F20;stroke-miterlimit:10;}
	.st1{font-family:'Georgia';}
	.st2{font-size:48px;}
	.st3{fill:none;stroke:#000000;stroke-miterlimit:10;}
	.st4{font-family:'ArialMT';}
	.st5{font-size:12px;}
	.st6{fill:#FFFFFF;stroke:#000000;stroke-miterlimit:10;}
	.st7{fill:#136E3E;}
	.st8{fill:#F18A00;}
	.st9{fill:#FFFFFF;}
</style>
<g id="image-cover">
	<rect id="bb" class="st0" width="595.3" height="425.2"/>
</g>
<g id="text-title">
	<text transform="matrix(1 0 0 1 42.0036 509.1448)" class="st1 st2">Her er en tittel</text>
	<text id="data" transform="matrix(1 0 0 1 657 584)" class="st5" style="font-family:'MyriadPro-Regular';">{&quot;label&quot;:&quot;Tittel&quot;}</text>
	<rect id="bb_1_" x="42.5" y="467.7" class="st3" width="510.2" height="56.7"/>
</g>
<g id="text-main">
	<rect id="bb_2_" x="42.5" y="552.8" class="st3" width="510.2" height="206.4"/>
	<text transform="matrix(1 0 0 1 44.3558 564.8307)" class="st4 st5">Brødtekst går her. Lorem ipsum, etc.</text>
</g>
<circle class="st6" cx="274.5" cy="225.5" r="85.5"/>
<g id="Layer_2">
	<rect x="511.3" y="237.5" class="st7" width="512" height="512"/>
	<g>
		<g>
			<path class="st8" d="M767.3,429.6c-6.4,0-11.6,5.2-11.6,11.6c0,6.4,5.2,11.6,11.6,11.6c6.4,0,11.6-5.2,11.6-11.6
				C779,434.8,773.8,429.6,767.3,429.6"/>
			<path class="st8" d="M736.6,439.6c-6.4,0-11.6,5.2-11.6,11.6c0,6.4,5.2,11.6,11.6,11.6c6.4,0,11.6-5.2,11.6-11.6
				C748.2,444.8,743,439.6,736.6,439.6"/>
			<path class="st8" d="M717.6,465.7c-6.4,0-11.6,5.2-11.6,11.6c0,6.4,5.2,11.6,11.6,11.6c6.4,0,11.6-5.2,11.6-11.6
				C729.2,470.9,724,465.7,717.6,465.7"/>
			<path class="st8" d="M746.3,587.1c-7.5,0-13.6-6.1-13.6-13.6c0-7.6,6.1-13.7,13.6-13.7c7.5,0,13.7,6.1,13.7,13.7
				C759.9,581,753.8,587.1,746.3,587.1"/>
			<path class="st8" d="M666.6,568c-7,0-12.6-5.7-12.6-12.7c0-7,5.7-12.6,12.6-12.6c7,0,12.6,5.7,12.6,12.6
				C679.2,562.3,673.6,568,666.6,568"/>
			<path class="st8" d="M707.6,576.6c-7.5,0-13.7-6.1-13.7-13.7c0-7.6,6.1-13.6,13.7-13.6c7.5,0,13.7,6.1,13.7,13.6
				C721.3,570.5,715.1,576.6,707.6,576.6"/>
			<path class="st8" d="M767.3,557.5c-6.4,0-11.6-5.2-11.6-11.6c0-6.4,5.2-11.6,11.6-11.6c6.4,0,11.6,5.2,11.6,11.6
				C779,552.3,773.8,557.5,767.3,557.5"/>
			<path class="st8" d="M736.6,547.5c-6.4,0-11.6-5.2-11.6-11.6c0-6.4,5.2-11.6,11.6-11.6c6.4,0,11.6,5.2,11.6,11.6
				C748.2,542.3,743,547.5,736.6,547.5"/>
			<path class="st8" d="M717.6,521.3c-6.4,0-11.6-5.2-11.6-11.6c0-6.4,5.2-11.6,11.6-11.6c6.4,0,11.6,5.2,11.6,11.6
				C729.2,516.1,724,521.3,717.6,521.3"/>
			<path class="st8" d="M593.8,532c-5.1,0-9.2-4.1-9.2-9.2c0-5.1,4.1-9.2,9.2-9.2c5.1,0,9.2,4.1,9.2,9.2
				C603,527.9,598.9,532,593.8,532"/>
			<path class="st8" d="M626.3,550.3c-6.1,0-11.1-5-11.1-11.1c0-6.1,5-11.1,11.1-11.1c6.1,0,11.1,5,11.1,11.1
				C637.4,545.3,632.5,550.3,626.3,550.3"/>
			<path class="st8" d="M798.1,439.6c6.4,0,11.6,5.2,11.6,11.6c0,6.4-5.2,11.6-11.6,11.6c-6.4,0-11.6-5.2-11.6-11.6
				C786.5,444.8,791.7,439.6,798.1,439.6"/>
			<path class="st8" d="M817.1,465.7c6.4,0,11.6,5.2,11.6,11.6c0,6.4-5.2,11.6-11.6,11.6c-6.4,0-11.6-5.2-11.6-11.6
				C805.5,470.9,810.7,465.7,817.1,465.7"/>
			<path class="st8" d="M788.4,587.1c7.5,0,13.7-6.1,13.7-13.6c0-7.6-6.1-13.7-13.7-13.7c-7.5,0-13.6,6.1-13.6,13.7
				C774.7,581,780.9,587.1,788.4,587.1"/>
			<path class="st8" d="M868.1,568c7,0,12.6-5.7,12.6-12.7c0-7-5.6-12.6-12.6-12.6c-7,0-12.6,5.7-12.6,12.6
				C855.4,562.3,861.1,568,868.1,568"/>
			<path class="st8" d="M827.1,576.6c7.5,0,13.6-6.1,13.6-13.7c0-7.6-6.1-13.6-13.6-13.6c-7.5,0-13.6,6.1-13.6,13.6
				C813.4,570.5,819.5,576.6,827.1,576.6"/>
			<path class="st8" d="M798.1,547.5c6.4,0,11.6-5.2,11.6-11.6c0-6.4-5.2-11.6-11.6-11.6c-6.4,0-11.6,5.2-11.6,11.6
				C786.5,542.3,791.7,547.5,798.1,547.5"/>
			<path class="st8" d="M817.1,521.3c6.4,0,11.6-5.2,11.6-11.6c0-6.4-5.2-11.6-11.6-11.6c-6.4,0-11.6,5.2-11.6,11.6
				C805.5,516.1,810.7,521.3,817.1,521.3"/>
			<path class="st8" d="M940.9,532c5.1,0,9.2-4.1,9.2-9.2c0-5.1-4.1-9.2-9.2-9.2c-5.1,0-9.2,4.1-9.2,9.2
				C931.6,527.9,935.8,532,940.9,532"/>
			<path class="st8" d="M908.3,550.3c6.2,0,11.1-5,11.1-11.1c0-6.1-5-11.1-11.1-11.1c-6.1,0-11.1,5-11.1,11.1
				C897.2,545.3,902.2,550.3,908.3,550.3"/>
		</g>
		<g>
			<path class="st9" d="M684.8,480.5c-7.2,0-13,5.8-13,13c0,7.2,5.8,13,13,13c7.2,0,13-5.8,13-13C697.8,486.3,692,480.5,684.8,480.5
				"/>
			<path class="st9" d="M650.6,482.1c-6.3,0-11.4,5.1-11.4,11.4c0,6.3,5.1,11.4,11.4,11.4c6.3,0,11.4-5.1,11.4-11.4
				C661.9,487.2,656.9,482.1,650.6,482.1"/>
			<path class="st9" d="M592.8,484.7c-4.9,0-8.8,4-8.8,8.8c0,4.9,4,8.9,8.8,8.9c4.9,0,8.9-4,8.9-8.9
				C601.7,488.6,597.7,484.7,592.8,484.7"/>
			<path class="st9" d="M565.7,485.3c-4.5,0-8.2,3.7-8.2,8.2c0,4.5,3.7,8.2,8.2,8.2c4.5,0,8.2-3.7,8.2-8.2
				C573.9,489,570.2,485.3,565.7,485.3"/>
			<path class="st9" d="M767.3,367.1c-7.6,0-13.7,6.1-13.7,13.7s6.1,13.6,13.7,13.6c7.5,0,13.6-6.1,13.6-13.6
				S774.9,367.1,767.3,367.1"/>
			<path class="st9" d="M746.3,399.9c-7.5,0-13.6,6.1-13.6,13.7c0,7.5,6.1,13.6,13.6,13.6c7.5,0,13.7-6.1,13.7-13.6
				C759.9,406,753.8,399.9,746.3,399.9"/>
			<path class="st9" d="M666.6,419.1c-7,0-12.6,5.7-12.6,12.6c0,7,5.7,12.6,12.6,12.6c7,0,12.6-5.7,12.6-12.6
				C679.2,424.7,673.6,419.1,666.6,419.1"/>
			<path class="st9" d="M654.9,451.5c-6.5,0-11.8,5.3-11.8,11.8c0,6.5,5.3,11.7,11.8,11.7c6.5,0,11.8-5.3,11.8-11.7
				C666.6,456.7,661.4,451.5,654.9,451.5"/>
			<path class="st9" d="M636.4,401.3c-7,0-12.6,5.7-12.6,12.6c0,7,5.7,12.6,12.6,12.6c7,0,12.6-5.7,12.6-12.6
				C649.1,407,643.4,401.3,636.4,401.3"/>
			<path class="st9" d="M707.6,410.5c-7.5,0-13.7,6.1-13.7,13.6c0,7.5,6.1,13.7,13.7,13.7c7.5,0,13.7-6.1,13.7-13.7
				C721.3,416.6,715.1,410.5,707.6,410.5"/>
			<path class="st9" d="M691.2,444.3c-7.3,0-13.3,5.9-13.3,13.3c0,7.3,5.9,13.3,13.3,13.3c7.3,0,13.3-5.9,13.3-13.3
				C704.5,450.2,698.6,444.3,691.2,444.3"/>
			<path class="st9" d="M722.2,371.6c-7.5,0-13.6,6.1-13.6,13.7c0,7.5,6.1,13.7,13.6,13.7c7.5,0,13.7-6.1,13.7-13.7
				C735.9,377.7,729.7,371.6,722.2,371.6"/>
			<path class="st9" d="M678.3,383.6c-7.5,0-13.7,6.1-13.7,13.7c0,7.5,6.1,13.7,13.7,13.7c7.5,0,13.7-6.1,13.7-13.7
				C692,389.7,685.9,383.6,678.3,383.6"/>
			<path class="st9" d="M593.8,455c-5.1,0-9.2,4.1-9.2,9.2c0,5.1,4.1,9.2,9.2,9.2c5.1,0,9.2-4.1,9.2-9.2
				C603,459.1,598.9,455,593.8,455"/>
			<path class="st9" d="M621.1,468.7c-5.4,0-9.9,4.4-9.9,9.9c0,5.4,4.4,9.9,9.9,9.9c5.4,0,9.9-4.4,9.9-9.9
				C631,473.1,626.6,468.7,621.1,468.7"/>
			<path class="st9" d="M565.7,447.7c-4.5,0-8.2,3.7-8.2,8.2c0,4.5,3.7,8.2,8.2,8.2c4.5,0,8.2-3.7,8.2-8.2
				C573.9,451.4,570.2,447.7,565.7,447.7"/>
			<path class="st9" d="M626.3,436.7c-6.1,0-11.1,5-11.1,11.1c0,6.1,5,11.1,11.1,11.1c6.1,0,11.1-5,11.1-11.1
				C637.4,441.7,632.5,436.7,626.3,436.7"/>
			<path class="st9" d="M598.5,422.9c-5.7,0-10.4,4.6-10.4,10.4c0,5.7,4.6,10.4,10.4,10.4c5.7,0,10.4-4.6,10.4-10.4
				C608.8,427.5,604.2,422.9,598.5,422.9"/>
			<path class="st9" d="M767.3,619.9c-7.6,0-13.7-6.1-13.7-13.7c0-7.5,6.1-13.7,13.7-13.7c7.5,0,13.6,6.1,13.6,13.7
				C781,613.8,774.9,619.9,767.3,619.9"/>
			<path class="st9" d="M654.9,535.6c-6.5,0-11.8-5.3-11.8-11.8c0-6.5,5.3-11.8,11.8-11.8c6.5,0,11.8,5.3,11.8,11.8
				C666.6,530.3,661.4,535.6,654.9,535.6"/>
			<path class="st9" d="M636.4,585.7c-7,0-12.6-5.7-12.6-12.6c0-7,5.7-12.6,12.6-12.6c7,0,12.6,5.7,12.6,12.6
				C649.1,580.1,643.4,585.7,636.4,585.7"/>
			<path class="st9" d="M691.2,542.8c-7.3,0-13.3-5.9-13.3-13.3c0-7.3,5.9-13.3,13.3-13.3c7.3,0,13.3,5.9,13.3,13.3
				C704.5,536.8,698.6,542.8,691.2,542.8"/>
			<path class="st9" d="M722.2,615.4c-7.5,0-13.6-6.1-13.6-13.6c0-7.5,6.1-13.7,13.6-13.7c7.5,0,13.7,6.1,13.7,13.7
				C735.9,609.3,729.7,615.4,722.2,615.4"/>
			<path class="st9" d="M678.3,603.5c-7.5,0-13.7-6.1-13.7-13.7c0-7.5,6.1-13.7,13.7-13.7c7.5,0,13.7,6.1,13.7,13.7
				C692,597.3,685.9,603.5,678.3,603.5"/>
			<path class="st9" d="M621.1,518.3c-5.4,0-9.9-4.4-9.9-9.9c0-5.4,4.4-9.8,9.9-9.8c5.4,0,9.9,4.4,9.9,9.8
				C631,513.9,626.6,518.3,621.1,518.3"/>
			<path class="st9" d="M565.7,539.3c-4.5,0-8.2-3.7-8.2-8.2c0-4.5,3.7-8.2,8.2-8.2c4.5,0,8.2,3.7,8.2,8.2
				C573.9,535.6,570.2,539.3,565.7,539.3"/>
			<path class="st9" d="M598.5,564.2c-5.7,0-10.4-4.6-10.4-10.4c0-5.7,4.6-10.4,10.4-10.4c5.7,0,10.4,4.6,10.4,10.4
				C608.8,559.5,604.2,564.2,598.5,564.2"/>
			<path class="st9" d="M849.9,480.5c7.2,0,13,5.8,13,13c0,7.2-5.8,13-13,13c-7.2,0-13-5.8-13-13
				C836.8,486.3,842.7,480.5,849.9,480.5"/>
			<path class="st9" d="M884.1,482.1c6.3,0,11.4,5.1,11.4,11.4c0,6.3-5.1,11.4-11.4,11.4c-6.3,0-11.4-5.1-11.4-11.4
				C872.7,487.2,877.8,482.1,884.1,482.1"/>
			<path class="st9" d="M941.8,484.7c4.9,0,8.9,4,8.9,8.8c0,4.9-4,8.9-8.9,8.9c-4.9,0-8.9-4-8.9-8.9
				C933,488.6,936.9,484.7,941.8,484.7"/>
			<path class="st9" d="M969,485.3c4.5,0,8.2,3.7,8.2,8.2c0,4.5-3.7,8.2-8.2,8.2c-4.5,0-8.2-3.7-8.2-8.2
				C960.8,489,964.4,485.3,969,485.3"/>
			<path class="st9" d="M788.4,399.9c7.5,0,13.7,6.1,13.7,13.7c0,7.5-6.1,13.6-13.7,13.6c-7.5,0-13.6-6.1-13.6-13.6
				C774.7,406,780.9,399.9,788.4,399.9"/>
			<path class="st9" d="M868.1,419.1c7,0,12.6,5.7,12.6,12.6c0,7-5.6,12.6-12.6,12.6c-7,0-12.6-5.7-12.6-12.6
				C855.4,424.7,861.1,419.1,868.1,419.1"/>
			<path class="st9" d="M879.8,451.5c6.5,0,11.8,5.3,11.8,11.8c0,6.5-5.3,11.7-11.8,11.7c-6.5,0-11.8-5.3-11.8-11.7
				C868,456.7,873.3,451.5,879.8,451.5"/>
			<path class="st9" d="M898.2,401.3c7,0,12.6,5.7,12.6,12.6c0,7-5.7,12.6-12.6,12.6c-7,0-12.6-5.7-12.6-12.6
				C885.6,407,891.3,401.3,898.2,401.3"/>
			<path class="st9" d="M827.1,410.5c7.5,0,13.6,6.1,13.6,13.6c0,7.5-6.1,13.7-13.6,13.7c-7.5,0-13.6-6.1-13.6-13.7
				C813.4,416.6,819.5,410.5,827.1,410.5"/>
			<path class="st9" d="M843.4,444.3c7.3,0,13.3,5.9,13.3,13.3c0,7.3-5.9,13.3-13.3,13.3c-7.3,0-13.3-5.9-13.3-13.3
				C830.1,450.2,836.1,444.3,843.4,444.3"/>
			<path class="st9" d="M812.5,371.6c7.5,0,13.6,6.1,13.6,13.7c0,7.5-6.1,13.7-13.6,13.7c-7.5,0-13.7-6.1-13.7-13.7
				C798.8,377.7,804.9,371.6,812.5,371.6"/>
			<path class="st9" d="M856.3,383.6c7.5,0,13.7,6.1,13.7,13.7c0,7.5-6.1,13.7-13.7,13.7c-7.5,0-13.6-6.1-13.6-13.7
				C842.7,389.7,848.8,383.6,856.3,383.6"/>
			<path class="st9" d="M940.9,455c5.1,0,9.2,4.1,9.2,9.2c0,5.1-4.1,9.2-9.2,9.2c-5.1,0-9.2-4.1-9.2-9.2
				C931.6,459.1,935.8,455,940.9,455"/>
			<path class="st9" d="M913.5,468.7c5.4,0,9.9,4.4,9.9,9.9c0,5.4-4.4,9.9-9.9,9.9c-5.4,0-9.9-4.4-9.9-9.9
				C903.7,473.1,908.1,468.7,913.5,468.7"/>
			<path class="st9" d="M969,447.7c4.5,0,8.2,3.7,8.2,8.2c0,4.5-3.7,8.2-8.2,8.2c-4.5,0-8.2-3.7-8.2-8.2
				C960.8,451.4,964.4,447.7,969,447.7"/>
			<path class="st9" d="M908.3,436.7c6.2,0,11.1,5,11.1,11.1c0,6.1-5,11.1-11.1,11.1c-6.1,0-11.1-5-11.1-11.1
				C897.2,441.7,902.2,436.7,908.3,436.7"/>
			<path class="st9" d="M936.2,422.9c5.7,0,10.4,4.6,10.4,10.4c0,5.7-4.6,10.4-10.4,10.4c-5.7,0-10.4-4.6-10.4-10.4
				C925.8,427.5,930.5,422.9,936.2,422.9"/>
			<path class="st9" d="M879.8,535.6c6.5,0,11.8-5.3,11.8-11.8c0-6.5-5.3-11.8-11.8-11.8c-6.5,0-11.8,5.3-11.8,11.8
				C868,530.3,873.3,535.6,879.8,535.6"/>
			<path class="st9" d="M898.2,585.7c7,0,12.6-5.7,12.6-12.6c0-7-5.7-12.6-12.6-12.6c-7,0-12.6,5.7-12.6,12.6
				C885.6,580.1,891.3,585.7,898.2,585.7"/>
			<path class="st9" d="M843.4,542.8c7.3,0,13.3-5.9,13.3-13.3c0-7.3-5.9-13.3-13.3-13.3c-7.3,0-13.3,5.9-13.3,13.3
				C830.1,536.8,836.1,542.8,843.4,542.8"/>
			<path class="st9" d="M812.5,615.4c7.5,0,13.6-6.1,13.6-13.6c0-7.5-6.1-13.7-13.6-13.7c-7.5,0-13.7,6.1-13.7,13.7
				C798.8,609.3,804.9,615.4,812.5,615.4"/>
			<path class="st9" d="M856.3,603.5c7.5,0,13.7-6.1,13.7-13.7c0-7.5-6.1-13.7-13.7-13.7c-7.5,0-13.6,6.1-13.6,13.7
				C842.7,597.3,848.8,603.5,856.3,603.5"/>
			<path class="st9" d="M913.5,518.3c5.4,0,9.9-4.4,9.9-9.9c0-5.4-4.4-9.8-9.9-9.8c-5.4,0-9.9,4.4-9.9,9.8
				C903.7,513.9,908.1,518.3,913.5,518.3"/>
			<path class="st9" d="M969,539.3c4.5,0,8.2-3.7,8.2-8.2c0-4.5-3.7-8.2-8.2-8.2c-4.5,0-8.2,3.7-8.2,8.2
				C960.8,535.6,964.4,539.3,969,539.3"/>
			<path class="st9" d="M936.2,564.2c5.7,0,10.4-4.6,10.4-10.4c0-5.7-4.6-10.4-10.4-10.4c-5.7,0-10.4,4.6-10.4,10.4
				C925.8,559.5,930.5,564.2,936.2,564.2"/>
		</g>
	</g>
</g>
</svg>
